HIERARCHY
ROOT Hips
{
	OFFSET 0.0000 0.0000 0.0000
	CHANNELS 6 Xposition Yposition Zposition Zrotation Xrotation Yrotation
	JOINT Ab
	{
		OFFSET -0.0000 8.0846 -0.0000
		CHANNELS 3 Zrotation Xrotation Yrotation
		JOINT Chest
		{
			OFFSET -0.0000 25.0068 -0.0000
			CHANNELS 3 Zrotation Xrotation Yrotation
			JOINT Neck
			{
				OFFSET -0.0000 25.0068 0.0000
				CHANNELS 3 Zrotation Xrotation Yrotation
				JOINT Head
				{
					OFFSET -0.0000 10.7556 0.0000
					CHANNELS 3 Zrotation Xrotation Yrotation
					End Site
					{
						OFFSET -0.0000 16.6222 0.0000
					}
				}
			}
			JOINT LeftCollar
			{
				OFFSET -0.0000 25.0068 0.0000
				CHANNELS 3 Zrotation Xrotation Yrotation
				JOINT LeftShoulder
				{
					OFFSET 19.5556 -0.0000 0.0000
					CHANNELS 3 Zrotation Xrotation Yrotation
					JOINT LeftElbow
					{
						OFFSET 27.1828 0.0000 0.0000
						CHANNELS 3 Zrotation Xrotation Yrotation
						JOINT LeftWrist
						{
							OFFSET 23.3157 0.0000 0.0000
							CHANNELS 3 Zrotation Xrotation Yrotation
							End Site
							{
								OFFSET 0.0000 -14.6667 0.0000
							}
						}
					}
				}
			}
			JOINT RightCollar
			{
				OFFSET -0.0000 25.0068 0.0000
				CHANNELS 3 Zrotation Xrotation Yrotation
				JOINT RightShoulder
				{
					OFFSET -19.5556 0.0000 0.0000
					CHANNELS 3 Zrotation Xrotation Yrotation
					JOINT RightElbow
					{
						OFFSET -27.1828 0.0000 0.0000
						CHANNELS 3 Zrotation Xrotation Yrotation
						JOINT RightWrist
						{
							OFFSET -23.3157 0.0000 0.0000
							CHANNELS 3 Zrotation Xrotation Yrotation
							End Site
							{
								OFFSET -0.0000 -14.6667 0.0000
							}
						}
					}
				}
			}
		}
	}
	JOINT LeftHip
	{
		OFFSET 11.7333 0.0000 0.0000
		CHANNELS 3 Zrotation Xrotation Yrotation
		JOINT LeftKnee
		{
			OFFSET -0.0000 -40.8688 0.0000
			CHANNELS 3 Zrotation Xrotation Yrotation
			JOINT LeftAnkle
			{
				OFFSET -0.0000 -44.4337 0.0000
				CHANNELS 3 Zrotation Xrotation Yrotation
				End Site
				{
					OFFSET -0.0000 -4.8889 16.6222
				}
			}
		}
	}
	JOINT RightHip
	{
		OFFSET -11.7333 0.0000 0.0000
		CHANNELS 3 Zrotation Xrotation Yrotation
		JOINT RightKnee
		{
			OFFSET -0.0000 -40.8688 0.0000
			CHANNELS 3 Zrotation Xrotation Yrotation
			JOINT RightAnkle
			{
				OFFSET -0.0000 -44.4337 0.0000
				CHANNELS 3 Zrotation Xrotation Yrotation
				End Site
				{
					OFFSET -0.0000 -4.8889 16.6222
				}
			}
		}
	}
}
MOTION
Frames: 16
Frame Time: 0.010000
-1.4486 88.6557 187.1236 2.2205 0.3009 176.0570 1.2282 359.9518 358.6668 359.5404 10.8915 358.7103 2.3555 342.2835 2.0406 1.5486 3.9909 1.6193 338.2718 358.4584 8.0551 300.0952 29.4900 356.6635 16.6675 354.2391 322.0942 82.3730 0.5636 340.7827 22.5062 359.0687 355.2358 57.1016 46.3469 10.1828 337.5663 353.8689 30.2459 275.6838 352.5571 20.0034 2.1988 358.6103 357.0338 359.0932 10.9532 358.2106 357.3341 351.3381 21.8467 0.7011 352.1934 359.6382 358.4356 20.3819 8.4392 356.6460 344.4843 337.4875 
-1.4572 88.6571 187.1078 2.2183 0.3113 176.0488 1.2105 0.0009 358.6780 359.5480 10.8986 358.7208 2.3498 342.2443 2.0380 1.5454 4.0146 1.6173 338.2705 358.4319 8.1068 300.1034 29.5834 356.6362 16.7409 354.2199 322.1003 82.3798 0.5540 340.9000 22.5014 359.0590 355.2505 56.9844 46.4088 10.3042 337.5217 353.8192 30.3422 275.7441 352.4881 19.9710 2.1960 358.6224 357.0628 359.0830 10.9731 358.1563 356.5735 351.1634 21.7300 0.6934 352.2148 359.6633 358.4349 20.3798 8.4576 356.5683 344.4864 337.4514 
-1.4671 88.6596 187.0943 2.2131 0.3084 176.0479 1.2074 0.0432 358.6726 359.5320 10.8896 358.7187 2.3259 342.2198 2.0172 1.5556 4.0506 1.5981 338.2699 358.4592 8.1164 300.1280 29.6078 356.6344 16.6205 354.2781 322.1739 82.8685 0.3729 341.1232 22.5122 359.0585 355.2429 56.8294 46.5313 10.4554 337.5364 353.8000 30.4473 275.7016 352.6016 20.0079 2.1870 358.6050 357.0348 359.0680 11.0202 358.1917 357.3365 351.2774 21.8649 0.6749 352.2293 359.6871 358.4495 20.3658 8.4558 356.5826 344.4685 337.4534 
-1.4745 88.6624 187.0821 2.2149 0.3025 176.0442 1.1935 0.0765 358.6794 359.5398 10.9134 358.7238 2.2969 342.1638 2.0136 1.5978 4.0706 1.5954 338.2686 358.4329 8.1306 300.1333 29.5792 356.6320 16.7300 354.1931 322.0418 82.2949 0.5621 340.8838 22.5009 359.0401 355.2472 56.7146 46.6516 10.5950 337.4456 353.7713 30.5378 275.7360 352.6096 19.9681 2.1938 358.5937 357.0189 359.0443 11.0486 358.1645 357.0877 351.1886 21.8534 0.6702 352.2427 359.7203 358.4641 20.3434 8.4008 356.5981 344.4618 337.4804 
-1.4863 88.6644 187.0649 2.2100 0.3087 176.0428 1.1078 0.0675 358.7027 359.7181 11.1005 358.7316 2.0615 341.9020 1.9570 1.7113 4.1995 1.5679 338.2765 358.4177 8.1788 300.0852 29.6895 356.4977 16.7638 354.1938 322.0654 82.2795 0.5206 340.9347 22.3349 359.0397 355.1586 56.4623 46.7711 10.9937 337.4422 353.7402 30.6242 275.7022 352.6138 19.9614 2.1820 358.6043 357.0027 359.0336 11.0607 358.1850 357.2842 351.2111 21.8881 0.6513 352.2734 359.7488 358.4867 20.3187 8.3416 356.5934 344.4317 337.4989 
-1.5000 88.6658 187.0493 2.2051 0.2928 176.0489 1.0708 0.0661 358.6795 359.7860 11.1392 358.7022 1.9489 341.9118 1.9303 1.7703 4.1561 1.5562 338.2463 358.4346 8.1598 300.0786 29.6410 356.5008 16.7339 354.2483 322.0933 82.2861 0.4728 340.9306 22.2959 359.0735 355.1715 56.2951 46.8336 11.1859 337.4755 353.7390 30.7003 275.6524 352.6279 19.9754 2.1745 358.5890 356.9974 359.0201 11.0766 358.1726 357.1920 351.1745 21.8823 0.6270 352.2805 359.7911 358.5097 20.2990 8.3494 356.5826 344.4422 337.4785 
-1.5159 88.6681 187.0420 2.2026 0.2598 176.0574 1.0610 0.0951 358.6886 359.7780 11.1277 358.7136 1.9522 341.8879 1.9319 1.7660 4.1620 1.5573 338.2505 358.4115 8.1863 300.0816 29.7161 356.4965 16.8252 354.1951 322.0692 82.2176 0.5017 341.0003 22.2865 359.0553 355.1753 56.1700 46.9628 11.3485 337.3747 353.6914 30.8036 275.6218 352.6393 19.9654 2.1679 358.5412 356.9954 359.0128 11.1136 358.1554 357.2494 351.1550 21.9014 0.6069 352.2641 359.8291 358.5392 20.2837 8.2901 356.5801 344.4406 337.4796 
-1.5302 88.6700 187.0223 2.1968 0.2544 176.0600 1.0056 0.1549 358.7248 359.8196 11.0964 358.7436 1.9442 341.8889 1.8956 1.7521 4.1476 1.5201 338.2355 358.4291 8.1514 300.0757 29.6093 356.5365 16.6972 354.2427 322.0713 82.2951 0.4724 340.8641 22.2702 359.0375 355.1370 56.0469 47.1082 11.4956 337.3151 353.6548 30.8306 275.5941 352.4292 19.9944 2.1614 358.5368 356.9706 358.9894 11.1350 358.1514 356.7502 351.0359 21.8357 0.5828 352.2923 359.8589 358.5605 20.2458 8.2503 356.5920 344.4181 337.5079 
-1.5473 88.6710 187.0008 2.1941 0.2393 176.0661 0.9870 0.1796 358.7356 359.8235 11.1113 358.7550 1.9391 341.8778 1.8734 1.7551 4.1195 1.5004 338.2403 358.4175 8.1413 300.0716 29.7442 356.5342 16.7785 354.1969 322.1111 82.4222 0.3912 341.0336 22.2694 359.0292 355.0750 55.8431 47.2061 11.7221 337.2786 353.6497 30.8566 275.8681 351.8699 19.9454 2.1579 358.5262 356.9314 358.9631 11.1525 358.1336 356.8690 351.0156 21.8966 0.5616 352.3146 359.8980 358.5823 20.2110 8.2443 356.6124 344.4055 337.4966 
-1.5687 88.6717 186.9890 2.1838 0.1620 176.1393 0.9810 0.1453 358.7028 359.8228 11.1285 358.7222 1.9087 341.8572 1.8476 1.7675 4.1025 1.4792 338.2460 358.4352 8.1072 300.0677 29.7163 356.5360 16.7288 354.2153 322.1267 82.4462 0.3640 340.9881 22.2728 359.0027 355.0331 55.6713 47.1797 11.8487 337.2857 353.6137 31.1651 275.9043 351.9820 19.9741 2.1430 358.4034 356.8456 358.9419 11.2315 358.1359 357.3857 351.0768 22.0031 0.5224 352.2866 359.8850 358.6161 20.1700 8.4129 356.5520 344.4175 337.2774 
-1.5928 88.6737 186.9702 2.1705 0.1273 176.1405 0.9681 0.1733 358.7001 359.8108 11.1042 358.7213 1.8791 341.8763 1.8722 1.8267 4.0749 1.5094 338.2414 358.4187 8.1565 300.0568 29.7469 356.5344 16.7827 354.1974 322.1303 82.4178 0.3523 341.0027 22.2709 359.0261 355.0671 55.5259 47.2539 11.9953 337.2844 353.5754 31.2909 275.9659 352.0246 19.9247 2.1210 358.3624 356.8235 358.9212 11.2834 358.1395 356.8247 350.9476 21.9210 0.4831 352.2820 359.9408 358.6525 20.1362 8.3296 356.6020 344.3733 337.3218 
-1.6214 88.6757 186.9453 2.1604 0.0993 176.1367 0.9483 0.1884 358.7053 359.8069 11.1090 358.7260 1.8975 341.8510 1.8893 1.7833 4.1075 1.5225 338.2326 358.4380 8.1597 300.0543 29.6987 356.5395 16.7392 354.2161 322.1498 82.3806 0.3524 340.9446 22.2679 359.0410 355.0859 55.3786 47.3213 12.1605 337.2338 353.5288 31.4287 275.9184 352.0882 19.9293 2.0960 358.3295 356.8131 358.9092 11.3241 358.1166 357.0593 350.9352 21.9902 0.4429 352.2971 359.9987 358.6894 20.0740 8.1501 356.6461 344.3585 337.4628 
-1.6516 88.6781 186.9290 2.1452 0.0460 176.1468 0.9242 0.1984 358.7041 359.8087 11.1010 358.7254 1.8819 341.8130 1.8859 1.7812 4.1339 1.5198 338.2403 358.4674 8.0969 300.0009 29.4509 356.5954 16.6139 354.2746 322.0859 82.4123 0.3481 340.7918 22.2631 359.0181 355.0687 55.2112 47.4130 12.3546 337.1751 353.4695 31.5700 275.8303 352.2085 19.8865 2.0701 358.2414 356.7564 358.8822 11.4064 358.1222 356.8533 350.8133 21.9925 0.3969 352.2763 0.0426 358.7264 20.0375 8.0809 356.6708 344.3475 337.5039 
-1.6871 88.6800 186.8979 2.1341 0.0344 176.1554 0.9088 0.2355 358.7040 359.7995 11.1037 358.7269 1.8992 341.7625 1.8913 1.7261 4.1978 1.5218 338.2401 358.4387 8.1017 299.9796 29.4810 356.6108 16.6804 354.2460 322.0738 82.3496 0.3331 340.7969 22.2648 359.0418 355.0365 54.9808 47.4963 12.6081 337.2089 353.4663 31.6524 275.7892 352.1751 19.8716 2.0357 358.2177 356.7093 358.8703 11.4704 358.1254 357.1783 350.7909 22.0706 0.3406 352.3135 0.0868 358.7786 19.9861 8.0195 356.7298 344.3217 337.5263 
-1.7313 88.6815 186.8814 2.1198 359.9597 176.1823 0.9130 0.2449 358.6941 359.7625 11.0577 358.7205 1.9310 341.7206 1.8870 1.6571 4.2705 1.5097 338.2429 358.4441 8.1034 299.9706 29.5198 356.6396 16.6641 354.2474 322.1142 82.3581 0.3195 340.8363 22.2733 359.0185 354.9938 54.7621 47.6631 12.8731 337.0950 353.4253 31.6830 275.7989 352.1690 19.7508 1.9982 358.0981 356.6436 358.8510 11.5663 358.0950 356.9277 350.6618 22.0845 0.2753 352.2730 0.0950 358.8288 19.9458 7.9407 356.7307 344.2876 337.5601 
-1.7758 88.6836 186.8540 2.0969 359.9126 176.1779 0.8780 0.2512 358.7120 359.7661 11.0542 358.7362 1.9639 341.6782 1.8984 1.5848 4.3396 1.5181 338.2271 358.4511 8.0916 299.9580 29.4641 356.6677 16.6277 354.2690 322.1099 82.3774 0.2868 340.8147 22.2618 359.0092 354.9958 54.6157 47.7847 13.0613 336.9968 353.3882 31.7198 275.8554 352.1623 19.7042 1.9568 358.0281 356.6005 358.8266 11.6558 358.0428 357.2711 350.6482 22.2157 0.2025 352.2616 0.1048 358.8635 19.9110 7.9388 356.7894 344.2418 337.5813 
